<svg id="Layer_1" data-name="Layer 1" xmlns="http://www.w3.org/2000/svg" viewBox="0 0 867.5 1225.89"><defs><style>.cls-1{fill:#2482bd;}.cls-2{fill:#e7e7e7;}.cls-3{fill:#f06160;}.cls-4{fill:#ffcb33;}</style></defs><title>card7</title><rect id="_Rectangle_" data-name="&lt;Rectangle&gt;" class="cls-1" x="1.25" y="0.27" width="865.5" height="1223.89" rx="22.21" ry="22.21"/><circle id="_Ellipse_" data-name="&lt;Ellipse&gt;" class="cls-2" cx="434" cy="612.8" r="239"/><path id="_Path_" data-name="&lt;Path&gt;" class="cls-3" d="M340.27,564a40.27,40.27,0,0,1,41.47-39c22.07.59,39.47,19.12,39,41.49-.5,22-19.19,39.54-41.47,38.94A40.28,40.28,0,0,1,340.27,564Z"/><path id="_Path_2" data-name="&lt;Path&gt;" class="cls-4" d="M528,564.56a40.22,40.22,0,1,1-40.92-39.51A40.26,40.26,0,0,1,528,564.56Z"/><path id="_Path_3" data-name="&lt;Path&gt;" class="cls-3" d="M340.68,699.41v-97l93.57,49.93Z"/><path id="_Path_4" data-name="&lt;Path&gt;" class="cls-4" d="M527.21,602.41v96.43l-93.08-46.3Z"/></svg>