<svg id="Layer_1" data-name="Layer 1" xmlns="http://www.w3.org/2000/svg" viewBox="0 0 867.5 1225.89"><defs><style>.cls-1{fill:#34b457;}.cls-2{fill:#e7e7e7;}.cls-3{fill:#f06160;}.cls-4{fill:#ffcb33;}.cls-5{fill:#5cade0;}</style></defs><title>card2</title><rect id="_Rectangle_" data-name="&lt;Rectangle&gt;" class="cls-1" x="1.75" y="2.05" width="865.5" height="1223.89" rx="22.21" ry="22.21"/><circle id="_Ellipse_" data-name="&lt;Ellipse&gt;" class="cls-2" cx="434.5" cy="614" r="239"/><g id="_Group_" data-name="&lt;Group&gt;"><path id="_Path_" data-name="&lt;Path&gt;" class="cls-3" d="M452.7,668c-.35,8.66,1.19,16.52-13.21,16.52s-12.82-7.9-13.19-16.53c-4-4.79-4.58-10.58-4.62-16.44q-.37-47.55,0-95.1c.05-5.86.62-11.64,4.62-16.43.37-8.65-1.2-16.52,13.2-16.52s12.82,7.89,13.2,16.53c4,4.78,4.57,10.57,4.62,16.43q.38,47.55,0,95.11C457.27,657.42,456.69,663.2,452.7,668Z"/><path id="_Path_2" data-name="&lt;Path&gt;" class="cls-4" d="M426.3,540V668c-3.12,0-6.35-.62-9.34,0-13.65,2.79-17.26-4.25-16.31-16.08-3.22-3.83-4.24-8.41-4.34-13.22q-.71-34.68,0-69.35c.1-4.81,1.13-9.39,4.33-13.22C398,532.81,415.55,541.87,426.3,540Z"/><path id="_Path_3" data-name="&lt;Path&gt;" class="cls-4" d="M452.7,668V540c3.12,0,6.35.63,9.33,0,13.62-2.78,17.26,4.23,16.32,16.06,3.21,3.83,4.24,8.42,4.34,13.23q.71,34.66,0,69.35c-.1,4.81-1.13,9.4-4.34,13.23C481.05,675.18,463.44,666.11,452.7,668Z"/><path id="_Path_4" data-name="&lt;Path&gt;" class="cls-5" d="M400.64,556.1q0,47.89,0,95.79c-25,0-25,0-25-24.9,0-18,1-36-.32-53.88-1.08-14.23,3.57-19.46,17.43-17.08C395.3,556.47,398,556.1,400.64,556.1Z"/><path id="_Path_5" data-name="&lt;Path&gt;" class="cls-5" d="M478.35,651.9V556.09c25,0,25,0,25,24.92,0,18-1,36,.33,53.88,1.08,14.24-3.58,19.46-17.43,17.08C483.7,651.53,481,651.9,478.35,651.9Z"/></g></svg>