<svg id="Layer_1" data-name="Layer 1" xmlns="http://www.w3.org/2000/svg" viewBox="0 0 867.5 1225.89"><defs><style>.cls-1{fill:#5cade0;}.cls-2{fill:#e7e7e7;}.cls-3{fill:#ffcb33;}.cls-4{fill:#50b965;}.cls-5{fill:#0f6295;}</style></defs><title>card6</title><rect id="_Rectangle_" data-name="&lt;Rectangle&gt;" class="cls-1" x="2.25" y="1.16" width="865.5" height="1223.89" rx="22.21" ry="22.21"/><circle id="_Ellipse_" data-name="&lt;Ellipse&gt;" class="cls-2" cx="435" cy="613.11" r="239"/><g id="_Group_" data-name="&lt;Group&gt;"><path id="_Path_" data-name="&lt;Path&gt;" class="cls-3" d="M509.14,553.69c.17,40.94.08,81.87.68,122.8.15,10.13-2.94,13.68-13.35,13.52-40.93-.63-81.87-.49-122.8-.63-.92-7.32,4.68-11,8.86-15.22q55.53-55.87,111.41-111.43C498.17,558.53,501.91,553,509.14,553.69Z"/><path id="_Path_2" data-name="&lt;Path&gt;" class="cls-4" d="M361,673.25c-.13-40.3-.09-80.6-.51-120.89-.09-8.32,2-12.16,11.15-12,40.28.59,80.56.64,120.85.89,1.76,7.51-4.15,11.14-8.27,15.28q-53.78,54.21-108,108C372.07,668.67,368.39,674.35,361,673.25Z"/><path id="_Path_3" data-name="&lt;Path&gt;" class="cls-5" d="M361,673.25c44.63-43.21,89.07-86.61,131.48-132,7.11-1.52,9.05-14.67,18.36-9.62,14.37,7.79,2.84,15-1.72,22.1-46.44,43.94-91.84,88.93-135.47,135.68-5.75,2-9.33,11.74-18,2.43C345.66,681,360.09,679.55,361,673.25Z"/></g></svg>