<svg id="Layer_1" data-name="Layer 1" xmlns="http://www.w3.org/2000/svg" viewBox="0 0 867.5 1225.89"><defs><style>.cls-1{fill:#ffcb33;}.cls-2{fill:#e7e7e7;}.cls-3{fill:#5cade0;}.cls-4{fill:#f06160;}</style></defs><title>card1</title><g id="_Group_" data-name="&lt;Group&gt;"><rect id="_Rectangle_" data-name="&lt;Rectangle&gt;" class="cls-1" x="1.25" y="1.05" width="865.5" height="1223.89" rx="22.21" ry="22.21"/><circle id="_Ellipse_" data-name="&lt;Ellipse&gt;" class="cls-2" cx="434" cy="613.58" r="239"/><g id="_Group_2" data-name="&lt;Group&gt;"><path id="_Path_" data-name="&lt;Path&gt;" class="cls-3" d="M431.77,542.94c51.65-21,94.26-9.45,117.33,31.71,17.42,31.09,13.75,67.72-9.61,96-21.12,25.53-59.74,35.68-91.91,24-5.35-1.93-10.54-4.33-15.81-6.51-27.33-6.49-35.08-29.82-42-52C378.3,599.29,400.28,552.75,431.77,542.94Z"/><path id="_Path_2" data-name="&lt;Path&gt;" class="cls-4" d="M431.77,542.94c-44.84,37.82-52.89,86-20.57,125.8,5.89,7.25,13.67,13,20.57,19.41C397.22,708.2,354,700.86,328.48,670.61c-27.3-32.34-27.3-77.71,0-110.09C354,530.26,397.14,522.91,431.77,542.94Z"/></g></g></svg>