<svg id="Layer_1" data-name="Layer 1" xmlns="http://www.w3.org/2000/svg" xmlns:xlink="http://www.w3.org/1999/xlink" viewBox="0 0 867.5 1225.89"><defs><style>.cls-1{fill:none;}.cls-2{fill:#2d2b2b;}.cls-3{clip-path:url(#clip-path);}.cls-4,.cls-6{opacity:0.4;}.cls-5,.cls-6,.cls-9{fill:#fff;}.cls-7{opacity:0.3;}.cls-8{fill:#494949;}.cls-9{opacity:0.41;font-size:110px;font-family:MyriadPro-Regular, Myriad Pro;letter-spacing:0.64em;}</style><clipPath id="clip-path"><rect class="cls-1" x="0.93" y="19.93" width="865.5" height="1205.07"/></clipPath></defs><title>card-back</title><rect class="cls-2" x="1.43" y="1.47" width="865.5" height="1223.89" rx="22.21" ry="22.21"/><g class="cls-3"><g class="cls-4"><path class="cls-5" d="M423.74,264.56a5.41,5.41,0,0,1-3.66-1.42l-32.56-30.08a5.19,5.19,0,0,1-.24-7.42,5.38,5.38,0,0,1,7.54-.24l32.57,30.07a5.2,5.2,0,0,1,.24,7.43A5.37,5.37,0,0,1,423.74,264.56Z"/><path class="cls-5" d="M392.18,265.56a5.36,5.36,0,0,1-3.65-1.42,5.2,5.2,0,0,1-.24-7.43l30.54-32.06a5.41,5.41,0,0,1,7.55-.24,5.2,5.2,0,0,1,.24,7.43L396.07,263.9A5.37,5.37,0,0,1,392.18,265.56Z"/></g><g class="cls-4"><path class="cls-5" d="M461.15,725.87a5.36,5.36,0,0,1-3.65-1.42l-32.57-30.07a5.2,5.2,0,0,1-.24-7.43,5.41,5.41,0,0,1,7.55-.24l32.56,30.07a5.2,5.2,0,0,1,.24,7.43A5.37,5.37,0,0,1,461.15,725.87Z"/><path class="cls-5" d="M429.59,726.87a5.36,5.36,0,0,1-3.65-1.42,5.2,5.2,0,0,1-.24-7.43L456.25,686a5.39,5.39,0,0,1,7.54-.24,5.2,5.2,0,0,1,.24,7.43l-30.55,32.06A5.33,5.33,0,0,1,429.59,726.87Z"/></g><g class="cls-4"><path class="cls-5" d="M64.9,983.61a5.33,5.33,0,0,1-3.65-1.43L28.68,952.11a5.21,5.21,0,0,1-.24-7.43,5.41,5.41,0,0,1,7.55-.23l32.56,30.07a5.2,5.2,0,0,1,.24,7.43A5.37,5.37,0,0,1,64.9,983.61Z"/><path class="cls-5" d="M33.34,984.61a5.36,5.36,0,0,1-3.65-1.42,5.2,5.2,0,0,1-.24-7.43L60,943.69a5.39,5.39,0,0,1,7.54-.23,5.2,5.2,0,0,1,.24,7.43L37.24,983A5.37,5.37,0,0,1,33.34,984.61Z"/></g><g class="cls-4"><path class="cls-5" d="M50.68,220.67A5.36,5.36,0,0,1,47,219.25L14.46,189.18a5.21,5.21,0,0,1-.24-7.43,5.41,5.41,0,0,1,7.55-.24l32.56,30.07a5.2,5.2,0,0,1,.24,7.43A5.33,5.33,0,0,1,50.68,220.67Z"/><path class="cls-5" d="M19.12,221.67a5.36,5.36,0,0,1-3.65-1.42,5.2,5.2,0,0,1-.24-7.43l30.55-32.06a5.39,5.39,0,0,1,7.54-.24,5.2,5.2,0,0,1,.24,7.43L23,220A5.4,5.4,0,0,1,19.12,221.67Z"/></g><g class="cls-4"><path class="cls-5" d="M824.61,427.34a5.36,5.36,0,0,1-3.65-1.42L788.4,395.84a5.19,5.19,0,0,1-.24-7.42,5.38,5.38,0,0,1,7.54-.24l32.56,30.07a5.2,5.2,0,0,1,.24,7.43A5.35,5.35,0,0,1,824.61,427.34Z"/><path class="cls-5" d="M793.06,428.34a5.39,5.39,0,0,1-3.66-1.42,5.22,5.22,0,0,1-.24-7.43l30.55-32.06a5.4,5.4,0,0,1,7.55-.24,5.21,5.21,0,0,1,.24,7.43L797,426.68A5.37,5.37,0,0,1,793.06,428.34Z"/></g><path class="cls-6" d="M598.58,350.92A5.37,5.37,0,0,1,594,348.3a5.21,5.21,0,0,1,0-5.26l44.72-76.41A5.34,5.34,0,0,1,643.3,264h0a5.35,5.35,0,0,1,4.62,2.62L692.77,343a5.19,5.19,0,0,1,0,5.25,5.37,5.37,0,0,1-4.62,2.64l-89.56.05Zm44.73-71.15L607.83,340.4l71.07,0-17.79-30.29h0Z"/><path class="cls-6" d="M524.45,817.63a5.35,5.35,0,0,1-4.62-2.63,5.17,5.17,0,0,1,0-5.25l44.72-76.41a5.37,5.37,0,0,1,4.62-2.64h0a5.36,5.36,0,0,1,4.62,2.63l22.42,38.18h0l22.42,38.17a5.21,5.21,0,0,1,0,5.26,5.34,5.34,0,0,1-4.62,2.63l-89.56.06Zm44.73-71.16-35.49,60.64,71.08-.05Z"/><path class="cls-6" d="M781.4,961a5.35,5.35,0,0,1-4.62-2.63,5.17,5.17,0,0,1,0-5.25l44.72-76.42a5.36,5.36,0,0,1,4.62-2.63h0a5.36,5.36,0,0,1,4.62,2.63L875.59,953a5.21,5.21,0,0,1,0,5.26,5.36,5.36,0,0,1-4.62,2.63l-89.56.06Zm44.73-71.16-35.49,60.64,71.08,0-17.79-30.29h0Z"/><path class="cls-6" d="M248.32,177.56a5.39,5.39,0,0,1-3.77-1.54L181.18,113.7a5.2,5.2,0,0,1-1.39-5.07,5.29,5.29,0,0,1,3.77-3.72L270.06,82a5.41,5.41,0,0,1,5.16,1.35,5.21,5.21,0,0,1,1.39,5.08l-23.13,85.21a5.31,5.31,0,0,1-3.77,3.72A5.47,5.47,0,0,1,248.32,177.56ZM195.26,112.7l50.29,49.45,9.18-33.81h0l9.18-33.81Z"/><path class="cls-6" d="M217.66,1098.16a5.39,5.39,0,0,1-3.78-1.54l-63.37-62.31a5.22,5.22,0,0,1-1.39-5.08,5.32,5.32,0,0,1,3.78-3.72l86.5-22.89a5.4,5.4,0,0,1,5.15,1.35,5.21,5.21,0,0,1,1.39,5.08l-23.13,85.21A5.31,5.31,0,0,1,219,1098,5.45,5.45,0,0,1,217.66,1098.16ZM164.6,1033.3l50.29,49.45,9.17-33.8h0l9.18-33.82Z"/><path class="cls-6" d="M707.44,584.34c-21.68,0-39.32-17.37-39.32-38.71s17.64-38.71,39.32-38.71,39.31,17.36,39.31,38.71S729.11,584.34,707.44,584.34Zm0-66.91a28.2,28.2,0,1,0,28.63,28.2A28.45,28.45,0,0,0,707.44,517.43Z"/><path class="cls-6" d="M535.77,211c-21.68,0-39.32-17.36-39.32-38.71s17.64-38.71,39.32-38.71S575.08,151,575.08,172.3,557.44,211,535.77,211Zm0-66.9A28.2,28.2,0,1,0,564.4,172.3,28.45,28.45,0,0,0,535.77,144.11Z"/><path class="cls-6" d="M557.45,1198.34c-21.68,0-39.32-17.37-39.32-38.71s17.64-38.71,39.32-38.71,39.31,17.37,39.31,38.71S579.12,1198.34,557.45,1198.34Zm0-66.91a28.2,28.2,0,1,0,28.64,28.2A28.45,28.45,0,0,0,557.45,1131.43Z"/><path class="cls-6" d="M750.25,1114.89a5.3,5.3,0,0,1-5.34-5.26,28.64,28.64,0,0,0-57.28,0,5.34,5.34,0,0,1-10.67,0c0-21.34,17.63-38.71,39.31-38.71s39.32,17.37,39.32,38.71A5.3,5.3,0,0,1,750.25,1114.89Z"/><path class="cls-6" d="M121.31,329.44a5.29,5.29,0,0,1-5.34-5.25,28.49,28.49,0,0,0-57,0,5.34,5.34,0,0,1-10.68,0c0-21.35,17.57-38.71,39.17-38.71s39.16,17.36,39.16,38.71A5.29,5.29,0,0,1,121.31,329.44Z"/><path class="cls-6" d="M92,1164.73c-21.68,0-39.32-17.3-39.32-38.56s17.64-38.55,39.32-38.55a5.26,5.26,0,1,1,0,10.51c-15.8,0-28.64,12.58-28.64,28s12.84,28,28.64,28a5.26,5.26,0,1,1,0,10.51Z"/><path class="cls-6" d="M456.55,100.8c-21.67,0-39.31-17.3-39.31-38.56s17.64-38.56,39.31-38.56a5.26,5.26,0,1,1,0,10.51c-15.79,0-28.63,12.58-28.63,28.05s12.84,28,28.63,28a5.26,5.26,0,1,1,0,10.52Z"/><path class="cls-6" d="M75,846.33c-21.68,0-39.32-17.37-39.32-38.71S53.3,768.91,75,768.91s39.31,17.36,39.31,38.71S96.66,846.33,75,846.33Zm0-66.91a28.2,28.2,0,1,0,28.64,28.2A28.46,28.46,0,0,0,75,779.42Z"/><path class="cls-6" d="M366.16,417.47H298.58a5.3,5.3,0,0,1-5.34-5.26V345.67a5.3,5.3,0,0,1,5.34-5.26h67.58a5.3,5.3,0,0,1,5.34,5.26v66.54A5.3,5.3,0,0,1,366.16,417.47ZM303.92,407h56.9v-56h-56.9Z"/><path class="cls-6" d="M362.77,842.3H295.19a5.29,5.29,0,0,1-5.34-5.25V770.5a5.29,5.29,0,0,1,5.34-5.25h67.58a5.29,5.29,0,0,1,5.34,5.25v66.55A5.29,5.29,0,0,1,362.77,842.3Zm-62.25-10.51h56.91v-56H300.52Z"/><path class="cls-6" d="M849.93,100.77H782.35A5.3,5.3,0,0,1,777,95.51V29a5.3,5.3,0,0,1,5.34-5.26h67.58A5.3,5.3,0,0,1,855.27,29V95.51A5.3,5.3,0,0,1,849.93,100.77ZM787.69,90.26H844.6v-56H787.69Z"/><g class="cls-4"><path class="cls-5" d="M685.24,710.84c-10.11,0-14.51-8-18-14.46-4-7.22-6.51-11.3-13-11.3a5.26,5.26,0,1,1,0-10.51c13.17,0,18.5,9.72,22.39,16.82,3.49,6.35,5.24,8.94,8.65,8.94a5.26,5.26,0,1,1,0,10.51Z"/><path class="cls-5" d="M747.31,710.84c-10.11,0-14.51-8-18-14.46-4-7.22-6.51-11.3-13-11.3a5.26,5.26,0,1,1,0-10.51c13.17,0,18.49,9.72,22.38,16.82,3.49,6.35,5.25,8.94,8.65,8.94a5.26,5.26,0,1,1,0,10.51Z"/><path class="cls-5" d="M685.24,710.84a5.26,5.26,0,1,1,0-10.51c3.4,0,5.16-2.59,8.65-8.94,3.89-7.1,9.22-16.82,22.39-16.82a5.26,5.26,0,1,1,0,10.51c-6.48,0-9.16,4.3-13,11.3C699.75,702.82,695.35,710.84,685.24,710.84Z"/><path class="cls-5" d="M747.31,710.84a5.26,5.26,0,1,1,0-10.51c3.4,0,5.16-2.59,8.65-8.94,3.89-7.1,9.22-16.82,22.38-16.82a5.26,5.26,0,1,1,0,10.51c-6.47,0-9.15,4.3-13,11.3C761.82,702.82,757.42,710.84,747.31,710.84Z"/></g><g class="cls-4"><path class="cls-5" d="M862.06,1190.65c-10.11,0-14.51-8-18-14.47-3.84-7-6.52-11.3-13-11.3a5.26,5.26,0,1,1,0-10.51c13.17,0,18.5,9.72,22.39,16.82,3.48,6.36,5.24,9,8.64,9a5.26,5.26,0,1,1,0,10.51Z"/><path class="cls-5" d="M862.06,1190.65a5.26,5.26,0,1,1,0-10.51c3.41,0,5.17-2.59,8.65-9,3.89-7.09,9.22-16.81,22.39-16.81a5.26,5.26,0,1,1,0,10.51c-6.47,0-9.15,4.29-13,11.29C876.57,1182.63,872.18,1190.65,862.06,1190.65Z"/></g><g class="cls-4"><path class="cls-5" d="M83.53,467.79c-10.12,0-14.51-8-18-14.47-4-7.21-6.51-11.29-13-11.29a5.26,5.26,0,1,1,0-10.52c13.17,0,18.5,9.72,22.39,16.82,3.48,6.36,5.24,8.95,8.65,8.95a5.26,5.26,0,1,1,0,10.51Z"/><path class="cls-5" d="M145.6,467.79c-10.12,0-14.51-8-18-14.47-4-7.21-6.51-11.29-13-11.29a5.26,5.26,0,1,1,0-10.51c13.17,0,18.5,9.71,22.39,16.81,3.48,6.36,5.24,8.95,8.65,8.95a5.26,5.26,0,1,1,0,10.51Z"/><path class="cls-5" d="M83.53,467.79a5.26,5.26,0,1,1,0-10.51c3.4,0,5.16-2.59,8.64-8.95,3.89-7.09,9.22-16.81,22.39-16.81a5.26,5.26,0,1,1,0,10.51c-6.47,0-9.15,4.29-13,11.29C98,459.77,93.64,467.79,83.53,467.79Z"/><path class="cls-5" d="M145.6,467.79a5.26,5.26,0,1,1,0-10.51c3.4,0,5.16-2.59,8.64-8.95,3.89-7.1,9.22-16.81,22.39-16.81h0a5.26,5.26,0,1,1,0,10.51h0c-6.48,0-9,4.08-13,11.29C160.11,459.77,155.71,467.79,145.6,467.79Z"/></g><g class="cls-4"><path class="cls-5" d="M664.21,153.46a5.29,5.29,0,0,1-5.33-5.25c0-13,9.87-18.21,17.07-22,6.46-3.44,9.09-5.17,9.09-8.52a5.34,5.34,0,0,1,10.67,0c0,10-8.14,14.29-14.69,17.76-7.32,3.9-11.47,6.41-11.47,12.8A5.29,5.29,0,0,1,664.21,153.46Z"/><path class="cls-5" d="M664.21,92.35a5.29,5.29,0,0,1-5.33-5.26c0-13,9.87-18.21,17.07-22,6.46-3.43,9.09-5.16,9.09-8.52a5.34,5.34,0,0,1,10.67,0c0,10-8.14,14.29-14.69,17.77-7.32,3.89-11.47,6.4-11.47,12.79A5.3,5.3,0,0,1,664.21,92.35Z"/><path class="cls-5" d="M690.38,122.91a5.3,5.3,0,0,1-5.34-5.26c0-3.35-2.63-5.08-9.09-8.52-7.2-3.83-17.07-9.07-17.07-22a5.34,5.34,0,0,1,10.67,0c0,6.37,4.36,9,11.47,12.79,6.55,3.48,14.69,7.81,14.69,17.77A5.3,5.3,0,0,1,690.38,122.91Z"/><path class="cls-5" d="M690.38,61.79A5.3,5.3,0,0,1,685,56.53c0-3.35-2.63-5.08-9.09-8.51-7.2-3.83-17.07-9.08-17.07-22.05a5.34,5.34,0,0,1,10.67,0c0,6.38,4.36,9,11.47,12.8,6.55,3.48,14.69,7.81,14.69,17.76A5.29,5.29,0,0,1,690.38,61.79Z"/></g><g class="cls-4"><path class="cls-5" d="M473.89,473.16a5.3,5.3,0,0,1-5.34-5.26c0-13,9.87-18.21,17.08-22,6.46-3.43,9.09-5.16,9.09-8.52a5.34,5.34,0,0,1,10.67,0c0,10-8.14,14.29-14.69,17.77-7.33,3.89-11.47,6.41-11.47,12.79A5.3,5.3,0,0,1,473.89,473.16Z"/><path class="cls-5" d="M473.89,412a5.3,5.3,0,0,1-5.34-5.26c0-13,9.87-18.21,17.08-22,6.46-3.43,9.09-5.16,9.09-8.51a5.34,5.34,0,0,1,10.67,0c0,9.95-8.14,14.28-14.69,17.76-7.33,3.89-11.47,6.41-11.47,12.79A5.3,5.3,0,0,1,473.89,412Z"/><path class="cls-5" d="M500.06,442.6a5.3,5.3,0,0,1-5.34-5.26c0-3.35-2.63-5.08-9.09-8.51-7.21-3.83-17.08-9.08-17.08-22.05a5.34,5.34,0,0,1,10.68,0c0,6.38,4.36,9,11.47,12.8,6.55,3.48,14.69,7.81,14.69,17.76A5.29,5.29,0,0,1,500.06,442.6Z"/><path class="cls-5" d="M500.06,381.48a5.29,5.29,0,0,1-5.34-5.25c0-3.36-2.63-5.09-9.09-8.52-7.21-3.83-17.08-9.08-17.08-22a5.34,5.34,0,0,1,10.68,0c0,6.37,4.36,9,11.47,12.79,6.55,3.48,14.69,7.81,14.69,17.77A5.29,5.29,0,0,1,500.06,381.48Z"/></g><g class="cls-4"><path class="cls-5" d="M349.69,1032a5.3,5.3,0,0,1-5.34-5.26c0-13,9.87-18.21,17.08-22,6.45-3.43,9.08-5.16,9.08-8.51a5.34,5.34,0,0,1,10.68,0c0,9.95-8.15,14.28-14.69,17.76-7.33,3.89-11.48,6.4-11.48,12.79A5.3,5.3,0,0,1,349.69,1032Z"/><path class="cls-5" d="M349.69,970.9a5.3,5.3,0,0,1-5.34-5.26c0-13,9.87-18.21,17.08-22,6.45-3.43,9.08-5.16,9.08-8.51a5.34,5.34,0,0,1,10.68,0c0,9.95-8.15,14.28-14.7,17.76-7.32,3.9-11.47,6.41-11.47,12.79A5.29,5.29,0,0,1,349.69,970.9Z"/><path class="cls-5" d="M375.85,1001.46a5.29,5.29,0,0,1-5.34-5.25c0-3.36-2.63-5.09-9.09-8.52-7.2-3.83-17.07-9.08-17.07-22.05a5.34,5.34,0,0,1,10.67,0c0,6.38,4.36,9,11.48,12.8,6.54,3.48,14.69,7.81,14.69,17.77A5.29,5.29,0,0,1,375.85,1001.46Z"/><path class="cls-5" d="M375.85,940.34a5.29,5.29,0,0,1-5.34-5.25c0-3.36-2.63-5.09-9.08-8.52-7.21-3.83-17.08-9.08-17.08-22a5.34,5.34,0,0,1,10.67,0c0,6.37,4.36,9,11.48,12.79,6.54,3.48,14.69,7.81,14.69,17.77A5.29,5.29,0,0,1,375.85,940.34Z"/></g><path class="cls-6" d="M836.2,779.42H759.61a5.26,5.26,0,1,1,0-10.51H836.2a5.26,5.26,0,1,1,0,10.51Z"/><path class="cls-6" d="M83.31,561.52H6.72a5.26,5.26,0,1,1,0-10.51H83.31a5.26,5.26,0,1,1,0,10.51Z"/><path class="cls-6" d="M841.92,211H765.34a5.26,5.26,0,1,1,0-10.51h76.58a5.26,5.26,0,1,1,0,10.51Z"/><path class="cls-6" d="M388.62,1164.73H312a5.26,5.26,0,1,1,0-10.51h76.58a5.26,5.26,0,1,1,0,10.51Z"/><path class="cls-6" d="M508.69,1019.05a5.35,5.35,0,0,1-3.78-1.54,5.2,5.2,0,0,1,0-7.43l54.16-53.32a5.39,5.39,0,0,1,7.54,0,5.19,5.19,0,0,1,0,7.43l-54.15,53.32A5.34,5.34,0,0,1,508.69,1019.05Z"/><path class="cls-6" d="M60.41,94.15a5.37,5.37,0,0,1-3.78-1.54,5.2,5.2,0,0,1,0-7.43l54.16-53.32a5.4,5.4,0,0,1,7.55,0,5.2,5.2,0,0,1,0,7.43L64.18,92.61A5.34,5.34,0,0,1,60.41,94.15Z"/><g class="cls-7"><path class="cls-8" d="M645.45,374.8,692,295.24l46.69,79.5ZM692,299.44,649.14,372.7l85.87-.06Z"/><path class="cls-8" d="M571.32,841.51l46.57-79.57,46.69,79.51Zm46.57-75.36L575,839.4l85.87,0Z"/><path class="cls-8" d="M828.27,984.83l46.57-79.57,46.69,79.51Zm46.57-75.36L832,982.72l85.87-.05Z"/><path class="cls-8" d="M297.59,202.42l-66-64.89,90.07-23.84Zm-61.86-63.81,60.76,59.75,22.17-81.7Z"/><path class="cls-8" d="M266.93,1123l-66-64.89L291,1034.29Zm-61.87-63.81L265.82,1119l22.17-81.7Z"/><path class="cls-8" d="M756.15,608.22c-19.32,0-35-15.48-35-34.51s15.72-34.5,35-34.5,35,15.48,35,34.5S775.47,608.22,756.15,608.22Zm0-66.91c-18.14,0-32.91,14.54-32.91,32.4s14.77,32.41,32.91,32.41,32.91-14.54,32.91-32.41S774.3,541.31,756.15,541.31Z"/><path class="cls-8" d="M584.48,234.89c-19.32,0-35.05-15.48-35.05-34.5s15.73-34.51,35.05-34.51,35,15.48,35,34.51S603.8,234.89,584.48,234.89Zm0-66.9c-18.15,0-32.91,14.53-32.91,32.4s14.76,32.4,32.91,32.4,32.91-14.54,32.91-32.4S602.63,168,584.48,168Z"/><path class="cls-8" d="M606.16,1222.22c-19.32,0-35-15.48-35-34.51s15.72-34.5,35-34.5,35.05,15.48,35.05,34.5S625.49,1222.22,606.16,1222.22Zm0-66.91c-18.14,0-32.91,14.54-32.91,32.4s14.77,32.41,32.91,32.41,32.91-14.54,32.91-32.41S624.31,1155.31,606.16,1155.31Z"/><path class="cls-8" d="M800,1137.72H797.9c0-17.87-14.76-32.4-32.91-32.4s-32.91,14.53-32.91,32.4h-2.14c0-19,15.72-34.51,35-34.51S800,1118.69,800,1137.72Z"/><path class="cls-8" d="M171.09,352.27H169a32.76,32.76,0,0,0-65.51,0h-2.13a34.89,34.89,0,0,1,69.78,0Z"/><path class="cls-8" d="M140.68,1188.61c-19.32,0-35-15.41-35-34.35s15.72-34.35,35-34.35v2.1c-18.15,0-32.91,14.47-32.91,32.25s14.76,32.25,32.91,32.25Z"/><path class="cls-8" d="M505.27,124.68c-19.32,0-35-15.42-35-34.36S486,56,505.27,56v2.1c-18.15,0-32.91,14.47-32.91,32.25s14.76,32.25,32.91,32.25Z"/><path class="cls-8" d="M123.69,870.21c-19.32,0-35-15.48-35-34.51s15.72-34.5,35-34.5,35.05,15.48,35.05,34.5S143,870.21,123.69,870.21Zm0-66.91c-18.14,0-32.91,14.54-32.91,32.4s14.77,32.41,32.91,32.41,32.91-14.54,32.91-32.41S141.84,803.3,123.69,803.3Z"/><path class="cls-8" d="M415.94,441.35H346.23V372.7h69.71Zm-67.58-2.1h65.45V374.8H348.36Z"/><path class="cls-8" d="M412.55,866.18H342.83V797.54h69.72ZM345,864.08h65.45V799.64H345Z"/><path class="cls-8" d="M899.72,124.65H830V56h69.72Zm-67.59-2.11h65.45V58.1H832.13Z"/><path class="cls-8" d="M734,734.72c-7.57,0-11-6.23-14.29-12.25C716,715.83,712.27,709,702.92,709v-2.1c10.62,0,14.87,7.76,18.63,14.61,3.28,6,6.11,11.15,12.41,11.15Z"/><path class="cls-8" d="M796,734.72c-7.57,0-11-6.23-14.29-12.25C778.1,715.83,774.34,709,765,709v-2.1c10.62,0,14.88,7.76,18.63,14.61,3.28,6,6.11,11.15,12.41,11.15Z"/><path class="cls-8" d="M734,734.72v-2.1c6.29,0,9.12-5.17,12.4-11.15,3.75-6.85,8-14.61,18.63-14.61V709c-9.35,0-13.11,6.87-16.75,13.51C744.93,728.49,741.52,734.72,734,734.72Z"/><path class="cls-8" d="M796,734.72v-2.1c6.28,0,9.12-5.17,12.4-11.15,3.75-6.85,8-14.61,18.63-14.61V709c-9.35,0-13.11,6.87-16.75,13.51C807,728.49,803.59,734.72,796,734.72Z"/><path class="cls-8" d="M132.24,491.67c-7.56,0-11-6.23-14.28-12.26-3.64-6.64-7.41-13.5-16.76-13.5V463.8c10.63,0,14.88,7.76,18.63,14.61,3.29,6,6.12,11.16,12.41,11.16Z"/><path class="cls-8" d="M194.31,491.67c-7.56,0-11-6.23-14.28-12.26-3.64-6.64-7.4-13.5-16.75-13.5v-2.1c10.62,0,14.87,7.76,18.63,14.6,3.28,6,6.11,11.16,12.4,11.16Z"/><path class="cls-8" d="M132.24,491.67v-2.1c6.29,0,9.13-5.17,12.41-11.16,3.75-6.84,8-14.6,18.63-14.6v2.1c-9.35,0-13.11,6.86-16.75,13.5C143.22,485.44,139.81,491.67,132.24,491.67Z"/><path class="cls-8" d="M194.31,491.67v-2.1c6.29,0,9.13-5.17,12.41-11.16,3.75-6.84,8-14.6,18.63-14.6h0v2.1h0c-9.35,0-13.11,6.86-16.75,13.5C205.29,485.44,201.88,491.67,194.31,491.67Z"/><path class="cls-8" d="M714,176.29h-2.14c0-10.46,7.88-14.64,14.84-18.34,6.07-3.23,11.32-6,11.32-12.21h2.14c0,7.44-6.33,10.81-12.45,14.06C721,163.38,714,167.09,714,176.29Z"/><path class="cls-8" d="M714,115.17h-2.14c0-10.45,7.88-14.64,14.83-18.34,6.08-3.23,11.33-6,11.33-12.21h2.14c0,7.45-6.33,10.81-12.45,14.06C721,102.27,714,106,714,115.17Z"/><path class="cls-8" d="M740.16,145.74H738c0-6.2-5.25-9-11.32-12.22-7-3.7-14.84-7.89-14.84-18.35H714c0,9.21,7,12.92,13.71,16.5C733.83,134.92,740.16,138.29,740.16,145.74Z"/><path class="cls-8" d="M740.16,84.62H738c0-6.2-5.25-9-11.32-12.22-7-3.69-14.84-7.88-14.84-18.34H714c0,9.2,7,12.91,13.71,16.49C733.83,73.81,740.16,77.17,740.16,84.62Z"/><path class="cls-8" d="M523.67,496h-2.13c0-10.46,7.88-14.65,14.83-18.35,6.08-3.23,11.33-6,11.33-12.21h2.14c0,7.45-6.33,10.81-12.45,14.06C530.65,483.08,523.67,486.78,523.67,496Z"/><path class="cls-8" d="M523.67,434.87h-2.13c0-10.46,7.88-14.65,14.83-18.34,6.08-3.23,11.33-6,11.33-12.22h2.14c0,7.45-6.33,10.81-12.45,14.07C530.65,422,523.67,425.66,523.67,434.87Z"/><path class="cls-8" d="M549.84,465.43H547.7c0-6.2-5.25-9-11.33-12.22-7-3.69-14.83-7.88-14.83-18.34h2.13c0,9.2,7,12.91,13.72,16.49C543.51,454.61,549.84,458,549.84,465.43Z"/><path class="cls-8" d="M549.84,404.31H547.7c0-6.19-5.25-9-11.33-12.21-7-3.7-14.83-7.89-14.83-18.35h2.13c0,9.21,7,12.91,13.72,16.5C543.51,393.5,549.84,396.86,549.84,404.31Z"/><path class="cls-8" d="M399.47,1054.84h-2.14c0-10.45,7.89-14.64,14.84-18.34,6.08-3.23,11.33-6,11.33-12.21h2.13c0,7.45-6.33,10.81-12.45,14.06C406.44,1041.94,399.47,1045.64,399.47,1054.84Z"/><path class="cls-8" d="M399.47,993.73h-2.14c0-10.46,7.89-14.65,14.84-18.34,6.08-3.23,11.33-6,11.33-12.22h2.13c0,7.45-6.33,10.81-12.45,14.07C406.44,980.82,399.47,984.52,399.47,993.73Z"/><path class="cls-8" d="M425.63,1024.29H423.5c0-6.2-5.25-9-11.33-12.22-7-3.69-14.84-7.88-14.84-18.34h2.14c0,9.2,7,12.91,13.71,16.49C419.3,1013.47,425.63,1016.84,425.63,1024.29Z"/><path class="cls-8" d="M425.63,963.17H423.5c0-6.19-5.25-9-11.33-12.21-6.95-3.7-14.84-7.89-14.84-18.35h2.14c0,9.21,7,12.91,13.71,16.5C419.3,952.36,425.63,955.72,425.63,963.17Z"/><rect class="cls-8" x="808.33" y="801.2" width="76.58" height="2.1"/><rect class="cls-8" x="55.44" y="583.3" width="76.58" height="2.1"/><rect class="cls-8" x="814.05" y="232.79" width="76.58" height="2.1"/><rect class="cls-8" x="360.75" y="1186.51" width="76.58" height="2.1"/><polygon class="cls-8" points="558.16 1042.63 556.65 1041.14 610.8 987.82 612.31 989.31 558.16 1042.63"/><polygon class="cls-8" points="109.88 117.73 108.37 116.24 162.52 62.92 164.03 64.41 109.88 117.73"/></g><path class="cls-6" d="M696.92,960a19.22,19.22,0,0,1-4.19-.47A18.56,18.56,0,0,1,681,951.35a18.07,18.07,0,0,1-2.41-13.9,18.32,18.32,0,0,1,8.28-11.51A18.86,18.86,0,0,1,701,923.57a18.59,18.59,0,0,1,11.69,8.16,18.28,18.28,0,0,1-5.87,25.41h0A18.86,18.86,0,0,1,696.92,960Zm7.09-7.29h0Zm-7.15-19.07a8.07,8.07,0,0,0-4.26,1.22,7.86,7.86,0,0,0-3.56,4.94,7.72,7.72,0,0,0,1,6,7.94,7.94,0,0,0,5,3.51,8.12,8.12,0,0,0,6.07-1h0a7.85,7.85,0,0,0,2.52-10.92,8,8,0,0,0-5-3.51A8.49,8.49,0,0,0,696.86,933.62Z"/><path class="cls-6" d="M109.16,709a18.76,18.76,0,0,1-4.19-.47,18.56,18.56,0,0,1-11.68-8.16,18.27,18.27,0,0,1,5.87-25.41,18.81,18.81,0,0,1,14.12-2.36A18.58,18.58,0,0,1,125,680.73a18.28,18.28,0,0,1-5.87,25.41h0A18.8,18.8,0,0,1,109.16,709Zm7.1-7.28h0Zm-7.16-19.07a8.11,8.11,0,0,0-4.26,1.21,7.86,7.86,0,0,0-2.52,10.92,8,8,0,0,0,5,3.5,8.12,8.12,0,0,0,6.07-1,7.86,7.86,0,0,0,2.52-10.92,8.12,8.12,0,0,0-6.83-3.7Z"/><path class="cls-6" d="M246.29,294.24a18.93,18.93,0,0,1-15.88-8.63,18.07,18.07,0,0,1-2.41-13.9,18.3,18.3,0,0,1,8.28-11.5,18.77,18.77,0,0,1,14.12-2.37A18.56,18.56,0,0,1,262.09,266a18.27,18.27,0,0,1-5.87,25.4h0A18.85,18.85,0,0,1,246.29,294.24Zm7.09-7.28h0Zm-7.15-19.07A8.06,8.06,0,0,0,242,269.1a7.85,7.85,0,0,0-3.56,4.94,7.74,7.74,0,0,0,1,6,8,8,0,0,0,5,3.51,8.15,8.15,0,0,0,6.06-1,7.85,7.85,0,0,0,2.52-10.92,8.12,8.12,0,0,0-6.82-3.7Z"/></g><text class="cls-9" transform="translate(222.06 613.09)">FLIP</text></svg>