<svg id="Layer_1" data-name="Layer 1" xmlns="http://www.w3.org/2000/svg" viewBox="0 0 867.5 1225.89"><defs><style>.cls-1{fill:#2482bd;}.cls-2{fill:#e7e7e7;}.cls-3{fill:#f06260;}.cls-4{fill:#ffcb34;}</style></defs><title>card8</title><rect id="_Rectangle_" data-name="&lt;Rectangle&gt;" class="cls-1" x="0.75" y="1.27" width="865.5" height="1223.89" rx="22.21" ry="22.21"/><circle id="_Ellipse_" data-name="&lt;Ellipse&gt;" class="cls-2" cx="433.5" cy="613.22" r="239"/><g id="_Group_" data-name="&lt;Group&gt;"><path id="_Path_" data-name="&lt;Path&gt;" class="cls-3" d="M428.56,671.33l-72.4,19.47c7-26.25,13.3-50.06,19.37-72.95Z"/><path id="_Path_2" data-name="&lt;Path&gt;" class="cls-3" d="M441.61,554.4,511,535.72c-7,26.09-13.18,49.53-18.51,69.55Z"/><path id="_Path_3" data-name="&lt;Path&gt;" class="cls-4" d="M356,535.64l73.31,19.86-53.48,53.42C369.53,585.78,363.08,561.94,356,535.64Z"/><path id="_Path_4" data-name="&lt;Path&gt;" class="cls-4" d="M487.34,618.33c5.64-.82,5.16,3.57,6,6.53,5.17,18.64,10.14,37.33,15.39,55.94,1.91,6.74,1,10-7,7.79-19.17-5.37-38.37-10.66-57.62-15.74-6.44-1.7-7.56-4.46-2.85-9.2q21.11-21.23,42.32-42.33A37.83,37.83,0,0,1,487.34,618.33Z"/></g></svg>